<svg xmlns="http://www.w3.org/2000/svg" viewBox="0 0 512 512" id="beef">
  <g>
    <rect width="22.8" height="6" x="84.17" y="327.58" fill="#5e6175"></rect>
    <rect width="22.8" height="6" x="92.36" y="357.38" fill="#5e6175" transform="rotate(-45 103.756 360.383)"></rect>
    <rect width="6" height="22.8" x="99.34" y="289.92" fill="#5e6175" transform="rotate(-45 102.34 301.32)"></rect>
    <path fill="#5e6175" d="M414.92 81.68h-.39a11.56 11.56 0 01-11.18-11.92h0a11.55 11.55 0 0111.92-11.17 11.55 11.55 0 01-.35 23.1zm0-17.1a5.55 5.55 0 00-5.55 5.36h0a5.56 5.56 0 105.73-5.37zM466.23 123h-.29a9 9 0 01-8.65-9.22h0a8.92 8.92 0 019.22-8.64 8.94 8.94 0 01-.28 17.87zm0-11.88a2.93 2.93 0 00-2.94 2.84h0a2.94 2.94 0 005 2.24 2.94 2.94 0 00-1.93-5.08z"></path>
    <path fill="#f5f5f5" d="M99.16,43.78a75.35,75.35,0,0,1,74.42,116.88l9.89,30-29.39-10.43A75.37,75.37,0,1,1,99.16,43.78Z"></path>
    <path fill="#5e6175" d="M111.21,196.53a78.42,78.42,0,1,1,65.68-35.42l11.34,34.44-33.73-12a77.56,77.56,0,0,1-30.42,11.89A79,79,0,0,1,111.21,196.53Zm.32-150.77a73.54,73.54,0,0,0-11.89,1h0a72.36,72.36,0,1,0,52.74,131l1.26-.87,25.06,8.9-8.43-25.62.84-1.23a72.38,72.38,0,0,0-59.58-113.2Z"></path>
    <path fill="#dee1ec" d="M457.05,207.6v88.69c0,95-77.73,173.65-172.74,172.94A170.94,170.94,0,0,1,164.42,419a174.09,174.09,0,0,1-15.61-17.92,112.25,112.25,0,0,1-7.66-11.6c-29.63-51.69-12-117.7,38.58-149.17l18.71-11.63a60,60,0,0,0,28.32-51h0a77.58,77.58,0,0,1,7-32.56A93.57,93.57,0,0,1,318.7,90.87h21.61A116.74,116.74,0,0,1,457.05,207.6Z"></path>
    <path fill="#f5f5f5" d="M284.73,442a144,144,0,0,1-101.24-42.39,148.37,148.37,0,0,1-13.2-15.17A84.71,84.71,0,0,1,156,311.65a87.37,87.37,0,0,1,38.55-52.31l18.07-11.24a78.23,78.23,0,0,0,37.14-66.84,54.33,54.33,0,0,1,4.84-22.72,69.82,69.82,0,0,1,63.17-40.39h20.87a92,92,0,0,1,92,91.94v85.64A146,146,0,0,1,388,398.87C360.54,426.65,324.25,442,285.82,442Z"></path>
    <path fill="#5e6175" d="M285.82,445h-1.11a146.88,146.88,0,0,1-103.34-43.27A149.7,149.7,0,0,1,167.9,386.2a89,89,0,0,1-6.15-9.3,87.49,87.49,0,0,1-8.64-66A90.35,90.35,0,0,1,193,256.79L211,245.55a75.23,75.23,0,0,0,35.73-64.29,57.38,57.38,0,0,1,5.12-24,72.82,72.82,0,0,1,65.89-42.13h20.87a95.06,95.06,0,0,1,95,94.94v85.64A148.89,148.89,0,0,1,390.14,401C362.1,429.34,325.05,445,285.82,445Zm-1.08-6h1.09c37.61,0,73.14-15,100.05-42.19a143,143,0,0,0,41.72-101V210.09a89,89,0,0,0-89-88.94H317.78a66.81,66.81,0,0,0-60.45,38.65,51.48,51.48,0,0,0-4.56,21.46,81.22,81.22,0,0,1-38.56,69.39l-18.07,11.24a84.39,84.39,0,0,0-37.23,50.51A81.54,81.54,0,0,0,167,373.91a82.83,82.83,0,0,0,5.72,8.68,144.23,144.23,0,0,0,12.93,14.84A141,141,0,0,0,284.74,439Z"></path>
    <path fill="#5e6175" d="M285.62,472.23h-1.33a173.45,173.45,0,0,1-122-51.08,178.27,178.27,0,0,1-15.88-18.24A113.13,113.13,0,0,1,138.55,391a111.88,111.88,0,0,1-11.1-84.41,114.9,114.9,0,0,1,50.7-68.79l18.71-11.64a56.67,56.67,0,0,0,26.9-48.4A81,81,0,0,1,231,143.92a96.92,96.92,0,0,1,87.67-56h21.61A119.87,119.87,0,0,1,460.05,207.6v88.69a175.33,175.33,0,0,1-52.38,125.24C374.7,454.25,331.39,472.23,285.62,472.23ZM318.7,93.87a90.87,90.87,0,0,0-82.22,52.57,75,75,0,0,0-6.72,31.31A62.62,62.62,0,0,1,200,231.24l-18.71,11.64a108.91,108.91,0,0,0-48.06,65.21A105.91,105.91,0,0,0,143.76,388a107.7,107.7,0,0,0,7.44,11.28,172,172,0,0,0,15.35,17.61,167.46,167.46,0,0,0,117.79,49.33h1.27c44.19,0,86-17.36,117.84-49a169.39,169.39,0,0,0,50.6-121V207.6A113.86,113.86,0,0,0,340.31,93.87Z"></path>
    <path fill="#e1830e" d="M402.89 207.59v1.76a8.31 8.31 0 01-8.32 8.31H388.9a31.29 31.29 0 01-21.53-8.58l-4.74-4.51A31.23 31.23 0 00341.11 196H325.74a31.32 31.32 0 00-19.51 6.85 31.3 31.3 0 01-19.53 6.85h0a8.35 8.35 0 01-8.19-9.77 95.6 95.6 0 001.26-15.52 39.19 39.19 0 0139.15-39.15h21.62A62.34 62.34 0 01402.89 207.59zM402.89 266.46v30.07c0 64.59-51.77 118-116.36 118.33a117 117 0 01-98.12-52.27c-15.65-23.49-12.2-54.85 7.76-74.81h0a59.59 59.59 0 0121.32-13.7 96 96 0 0039.35-27.6 22.63 22.63 0 0117.18-8h.53a35.24 35.24 0 0126 11.4 35.19 35.19 0 0026 11.42h7a35.33 35.33 0 0021.14-7l4-3a35.25 35.25 0 0121.14-7h.76A22.32 22.32 0 01402.89 266.46z"></path>
    <rect width="40.38" height="21.79" x="312.03" y="216.42" fill="#f5f5f5" rx="9.9"></rect>
    <path fill="#5e6175" d="M342.51,241.21H321.93A12.91,12.91,0,0,1,309,228.3v-2a12.91,12.91,0,0,1,12.9-12.9h20.58a12.92,12.92,0,0,1,12.9,12.9v2A12.92,12.92,0,0,1,342.51,241.21Zm-20.58-21.79a6.91,6.91,0,0,0-6.9,6.9v2a6.91,6.91,0,0,0,6.9,6.91h20.58a6.92,6.92,0,0,0,6.9-6.91v-2a6.91,6.91,0,0,0-6.9-6.9Z"></path>
    <path fill="#e1830e" d="M154.94,93.37a21.5,21.5,0,0,0-16.24,7.42h-4.09l-8.23-9.61a12.14,12.14,0,0,0-9.22-4.24H105.59a12.14,12.14,0,0,0-9.22,4.24l-8.23,9.61H83a17.9,17.9,0,0,0-14.51-7.42H58.84l6.62,10.76a17.89,17.89,0,0,0,15.24,8.52h5.22V126a10.13,10.13,0,0,0,3,7.16l3.21,3.21a10.12,10.12,0,0,1,3,7.16V152a10.12,10.12,0,0,0,3,7.16h0a10.12,10.12,0,0,0,7.16,3h12.37a10.12,10.12,0,0,0,7.16-3h0a10.12,10.12,0,0,0,3-7.16v-8.42a10.12,10.12,0,0,1,3-7.16l3.21-3.21a10.13,10.13,0,0,0,3-7.16V112.65H140a21.48,21.48,0,0,0,18.3-10.23l5.57-9Z"></path>
    <path fill="#a9afc4" d="M410.63,447.47l-3.76-4.67c1.53-1.24,3.06-2.51,4.54-3.78l3.91,4.56C413.79,444.89,412.21,446.2,410.63,447.47Zm12.22-10.7-4.15-4.34c1.43-1.37,2.84-2.76,4.21-4.15l4.28,4.21C425.78,433.92,424.32,435.36,422.85,436.77Zm11.26-11.72-4.51-4c1.3-1.48,2.59-3,3.82-4.5l4.64,3.81C436.78,422,435.45,423.52,434.11,425.05Zm10.18-12.68-4.85-3.54c1.15-1.58,2.3-3.2,3.4-4.82l5,3.37C446.66,409.06,445.48,410.74,444.29,412.37Zm9-13.55-5.15-3.09c1-1.68,2-3.4,2.94-5.11l5.25,2.91C455.34,395.29,454.32,397.07,453.28,398.82ZM461,384.49l-5.41-2.6c.85-1.76,1.68-3.56,2.47-5.35l5.49,2.41C462.73,380.8,461.87,382.67,461,384.49Zm6.39-15-5.62-2.1c.68-1.83,1.35-3.71,2-5.56l5.68,1.92C468.77,365.71,468.09,367.64,467.38,369.53Zm5-15.46-5.78-1.6c.52-1.89,1-3.82,1.48-5.72l5.83,1.41C473.46,350.13,472.94,352.11,472.4,354.07Zm3.65-15.86-5.9-1.08c.36-1.95.68-3.91,1-5.83l5.94.9C476.76,334.18,476.42,336.2,476.05,338.21Zm2.24-16.12-6-.55c.19-2,.34-4,.45-5.88l6,.34C478.63,318,478.48,320.05,478.29,322.09ZM473,305.86c0-3.65-.24-5.73-.24-5.75l6-.57c0,.09.22,2.31.27,6.24Z"></path>
    <circle cx="98.87" cy="116.86" r="3.03" fill="#fff"></circle>
    <circle cx="123.7" cy="116.86" r="3.03" fill="#fff"></circle>
  </g>
</svg>
