<svg xmlns="http://www.w3.org/2000/svg" viewBox="0 0 64 64" id="ham">
  <path fill="#e5b6a9" d="M61.5 57.5H44.63A4.51051 4.51051 0 0049 53V40.21a4.67951 4.67951 0 014.51-4.71h.12A4.51051 4.51051 0 0158 40V54a3.51678 3.51678 0 003.5 3.5zM44.51 57.5H27.63A3.52235 3.52235 0 0031 54V40.21a4.67951 4.67951 0 014.51-4.71h.12A4.51051 4.51051 0 0140 40V52.79A4.67951 4.67951 0 0044.51 57.5z"></path>
  <path fill="#efc5b8" d="M63 50.29V56a1.498 1.498 0 01-1.5 1.5A3.51678 3.51678 0 0158 54V47.5h2.21A2.79112 2.79112 0 0163 50.29zM35.63 35.5H53.51A4.67951 4.67951 0 0049 40.21V53a4.51051 4.51051 0 01-4.37 4.5h-.12A4.67951 4.67951 0 0140 52.79V40a4.51051 4.51051 0 00-4.37-4.5zM33.84 35.5h1.67A4.67951 4.67951 0 0031 40.21V54a3.52235 3.52235 0 01-3.37 3.5h-.11A3.67031 3.67031 0 0124 53.8v-.92a1.26286 1.26286 0 00-1.22-1.38H18V40.59a.27686.27686 0 01.01-.09 4.58827 4.58827 0 01.32-1.7 5.07754 5.07754 0 014.76-3.3H33.84z"></path>
  <path fill="#e5b6a9" d="M27.52,57.5H15a3,3,0,0,1,0-6h7.78A1.26286,1.26286,0,0,1,24,52.88v.92A3.67031,3.67031,0,0,0,27.52,57.5Z"></path>
  <path fill="#a05454" d="M33.83,11.5l.01-.01A16.28052,16.28052,0,0,1,45.5,6.5H17.75A16.80245,16.80245,0,0,0,1,23.25v.5A16.80249,16.80249,0,0,0,17.75,40.5h.26a4.58766,4.58766,0,0,1,.32-1.7,5.07746,5.07746,0,0,1,4.76-3.3H33.84a17.29067,17.29067,0,0,1-2.7-20.33A16.83673,16.83673,0,0,1,33.83,11.5Z"></path>
  <path fill="#d8a69a" d="M63,23.25v.5a16.618,16.618,0,0,1-2.22,8.31l-11.7-2.34a8.11479,8.11479,0,0,1-6.49-7.41,7.07139,7.07139,0,0,0-.22-1.39l1.5.37a8.10941,8.10941,0,0,0,9.78-9.88l-.92-3.6A16.80253,16.80253,0,0,1,63,23.25Z"></path>
  <path fill="#efc5b8" d="M46.26,6.5a16.61572,16.61572,0,0,1,6.47,1.31l.92,3.6a8.10941,8.10941,0,0,1-9.78,9.88l-1.5-.37a8.09638,8.09638,0,0,0-9.1-6.08l-2.13.33a16.8368,16.8368,0,0,1,2.69-3.67l.01-.01A16.2806,16.2806,0,0,1,45.5,6.5Z"></path>
  <path fill="#e5b6a9" d="M49.08,29.72l11.7,2.34a16.87673,16.87673,0,0,1-4.1,4.76,4.43953,4.43953,0,0,0-3.05-1.32H33.84a17.29071,17.29071,0,0,1-2.7-20.33l2.13-.33a8.09638,8.09638,0,0,1,9.1,6.08,7.07139,7.07139,0,0,1,.22,1.39,8.11479,8.11479,0,0,0,6.49,7.41Z"></path>
  <path fill="#914747" d="M27.42383,10.5c-.29,0-.5954.01361-.89417.0213A14.634,14.634,0,0,1,36.5,6.5H28.73761a17.9182,17.9182,0,0,0-4.639,3.61182c-.17431.19238-.33392.39587-.5.59454a49.37059,49.37059,0,0,0-10.14349,2.14447,17.23335,17.23335,0,0,1,1.11908-1.38892A14.81494,14.81494,0,0,1,25.5,6.5H17.75l-.01373.00067a17.91908,17.91908,0,0,0-4.63764,3.61115,19.25689,19.25689,0,0,0-2.6958,3.8388,37.593,37.593,0,0,0-8.7893,4.88605,16.546,16.546,0,0,0-.54645,3.09656,31.65927,31.65927,0,0,1,8.13257-5.29865A20.28723,20.28723,0,0,0,8.02777,22.5H1.03821C1.02692,22.75043,1,22.99695,1,23.25v.5c0,.25305.02692.49957.03821.75h6.9895a20.28078,20.28078,0,0,0,1.17157,5.86615,31.66112,31.66112,0,0,1-8.13214-5.29834,16.547,16.547,0,0,0,.54669,3.09656,37.60016,37.60016,0,0,0,8.78955,4.886,19.24551,19.24551,0,0,0,2.70111,3.84418,17.8905,17.8905,0,0,0,4.62915,3.60462L17.75,40.5h.26a4.58766,4.58766,0,0,1,.32-1.7c.02533-.06793.0625-.12952.09063-.196a15.92624,15.92624,0,0,1-3.84057-3.059,17.2918,17.2918,0,0,1-1.1239-1.39459,50.154,50.154,0,0,0,7.55322,1.80579A5.05076,5.05076,0,0,1,23.09,35.5H33.84c-.308-.3183-.59607-.65656-.87928-.999H27.42383c-.89057,0-1.83252-.04468-2.80145-.12036a17.21836,17.21836,0,0,1-1.88019-3.09546A18.05521,18.05521,0,0,1,21.05524,24.5h7.99432C29.0304,24.16724,29,23.8374,29,23.5c0-.33606.01318-.66882.0321-1H21.05536a18.07723,18.07723,0,0,1,1.68976-6.7915,17.19332,17.19332,0,0,1,1.87622-3.08808c.96924-.07568,1.91156-.12042,2.80249-.12042H32.946c.28327-.34387.57551-.67981.884-1l.01-.01c.3349-.34271.68853-.66565,1.05035-.97864C34.87067,10.51019,34.854,10.5,34.834,10.5Zm-5.4159,23.59277a47.42229,47.42229,0,0,1-10.16339-2.609c-.03253-.06713-.07061-.131-.10235-.1986A18.05521,18.05521,0,0,1,10.05524,24.5h8.97247a20.078,20.078,0,0,0,1.90686,7.6416A19.16065,19.16065,0,0,0,22.00793,34.09277ZM20.93748,14.85254A20.09833,20.09833,0,0,0,19.02777,22.5H10.05536a18.07723,18.07723,0,0,1,1.68976-6.7915c.03045-.065.06726-.12653.09851-.191a47.41835,47.41835,0,0,1,10.16363-2.6092A19.1337,19.1337,0,0,0,20.93748,14.85254Z"></path>
</svg>
