<svg xmlns="http://www.w3.org/2000/svg" viewBox="0 0 128 128" id="mutton">
  <path fill="#dcaaa5" d="M87.73,46.6c-.23-14.39-1.06-27-2.6-35.78a3,3,0,0,1,3-3.51h4.09a3,3,0,0,1,2.94,2.41C97,19,97.9,30.46,98.15,46.43Z"></path>
  <path fill="#ff8c8e" d="M89.33,40.92h13.33a5.22,5.22,0,0,1,4.87,3.36c20.18,52.6,18.22,76.34-15,76.34a33.28,33.28,0,0,1-18.12-5C60.09,106.39,59.77,85.81,72.9,75,82.69,66.92,88.09,56.06,89.33,40.92Z"></path>
  <path fill="#ec5458" d="M82.54,40.92h8.68a5.22,5.22,0,0,1,4.87,3.36c20.18,52.6,18.22,76.34-15,76.34a33.28,33.28,0,0,1-18.12-5C48.65,106.39,48.33,85.81,61.46,75c8.81-7.26,14.07-16.79,15.93-29.67A5.19,5.19,0,0,1,82.54,40.92Z"></path>
  <path fill="#982770" d="M77.76 76.21a3.36 3.36 0 010-3.81 77 77 0 006-10.93 4.08 4.08 0 017.59.41A158.12 158.12 0 0198 87.32 2.42 2.42 0 0194.71 90a37.51 37.51 0 01-11.23-7.17A39.81 39.81 0 0177.76 76.21zM95.32 97.62a3.94 3.94 0 012.57 4.86 10.69 10.69 0 01-1.36 3c-2.18 3.16-7.37 4.77-15.45 4.77a22.92 22.92 0 01-12.48-3.36A13.53 13.53 0 0162.36 96a15.31 15.31 0 015.72-13c.32-.25.64-.5 1-.76a3.43 3.43 0 014.89.47A45 45 0 0095.32 97.62z"></path>
  <path fill="#dcaaa5" d="M43.57,46.6c-.23-14.39-1.06-27-2.6-35.78a3,3,0,0,1,3-3.51H48A3,3,0,0,1,51,9.72c1.84,9.26,2.79,20.74,3,36.71Z"></path>
  <path fill="#ff8c8e" d="M45.17,40.92H58.5a5.22,5.22,0,0,1,4.87,3.36c20.18,52.6,18.22,76.34-15,76.34a33.28,33.28,0,0,1-18.12-5C15.93,106.39,15.61,85.81,28.74,75,38.53,66.92,43.93,56.06,45.17,40.92Z"></path>
  <path fill="#ec5458" d="M38.38,40.92h8.68a5.22,5.22,0,0,1,4.87,3.36c20.18,52.6,18.22,76.34-15,76.34a33.28,33.28,0,0,1-18.12-5C4.49,106.39,4.17,85.81,17.3,75c8.81-7.26,14.07-16.79,15.93-29.67A5.19,5.19,0,0,1,38.38,40.92Z"></path>
  <path fill="#982770" d="M33.6 76.21a3.36 3.36 0 010-3.81 77 77 0 006-10.93 4.08 4.08 0 017.59.41 158.12 158.12 0 016.64 25.44A2.42 2.42 0 0150.55 90a37.51 37.51 0 01-11.23-7.17A39.81 39.81 0 0133.6 76.21zM51.16 97.62a3.94 3.94 0 012.57 4.86 10.69 10.69 0 01-1.36 3c-2.18 3.16-7.37 4.77-15.45 4.77a22.92 22.92 0 01-12.48-3.36A13.53 13.53 0 0118.2 96a15.31 15.31 0 015.72-13c.32-.25.64-.5.95-.76a3.43 3.43 0 014.89.47A45 45 0 0051.16 97.62z"></path>
</svg>
