<svg xmlns="http://www.w3.org/2000/svg" width="32" height="32" viewBox="0 0 8.467 8.467" id="prawn">
  <g transform="translate(181.61 -1098.803)">
    <path fill="#2d2828" d="m -180.10223,1101.1854 a 0.1323069,0.13230206 0 0 0 -0.11525,0.1638 c 0,0 0.13739,0.5456 0.46302,1.094 0.32565,0.5485 0.85828,1.123 1.65004,1.123 h 1.58594 c 0.58608,-10e-5 1.05884,0.4722 1.05887,1.0583 0,0.586 -0.47279,1.0589 -1.05887,1.0589 h -1.32188 c -0.0932,0 -0.1818,0.02 -0.26252,0.055 l -0.87643,-0.3752 a 0.1323069,0.13230206 0 0 0 -0.0527,-0.012 0.1323069,0.13230206 0 0 0 -0.0584,0.014 l -0.79531,0.3984 a 0.1323069,0.13230206 0 0 0 -0.0331,0.2109 l 0.17778,0.1793 -0.14417,0.072 a 0.1323069,0.13230206 0 0 0 -0.0238,0.2206 l 0.66252,0.5297 a 0.1323069,0.13230206 0 0 0 0.0816,0.029 h 0.99219 a 0.13281202,0.13280716 0 0 0 0.10028,-0.044 c 0.0726,0.028 0.15018,0.044 0.23201,0.044 h 1.32189 c 1.60583,0 2.91041,-1.3041 2.91041,-2.9099 0,-1.6058 -1.30458,-2.9099 -2.91041,-2.9099 -1.12517,0 -2.31376,0 -3.57032,0 a 0.1323069,0.13230206 0 0 0 -0.0135,0 z m 0.21084,0.2636 c 1.18039,0 2.31082,0 3.37291,0 0.0448,0 0.0885,0 0.13282,0.01 v 1.8516 c -0.0436,0 -0.0881,-0.01 -0.13282,-0.01 h -1.58594 c -0.66347,0 -1.12093,-0.4824 -1.42369,-0.9922 -0.25432,-0.4283 -0.32764,-0.7326 -0.36328,-0.8594 z m 5.70765,1.3994 c 0.1987,0.3715 0.31213,0.7957 0.31213,1.2469 0,0.1583 -0.0164,0.3125 -0.0429,0.4631 h -1.28469 c -0.0127,-0.2545 -0.097,-0.4901 -0.23406,-0.6873 z m -4.84415,2.7823 0.68265,0.2909 c -0.0323,0.038 -0.0597,0.08 -0.0827,0.125 l -0.55502,-0.2227 a 0.1323069,0.13230205 0 0 0 -0.0511,-0.01 0.1323069,0.13230205 0 0 0 -0.0563,0.014 l -0.40101,0.201 -0.11109,-0.1111 z m 3.14089,0.1483 0.60463,0.6552 c -0.36888,0.1948 -0.78941,0.3054 -1.23611,0.3054 h -0.39634 v -0.7927 h 0.39634 c 0.22982,0 0.44299,-0.064 0.63148,-0.1679 z" color="#000" font-family="sans-serif" font-weight="400" overflow="visible" style="line-height:normal;font-variant-ligatures:normal;font-variant-position:normal;font-variant-caps:normal;font-variant-numeric:normal;font-variant-alternates:normal;font-feature-settings:normal;text-indent:0;text-align:start;text-decoration-line:none;text-decoration-style:solid;text-decoration-color:#000;text-transform:none;text-orientation:mixed;shape-padding:0;isolation:auto;mix-blend-mode:normal"></path>
    <path fill="#f39515" d="M-176.12174 1101.4817c.7487.1127 1.3955.5355 1.80041 1.1369l-1.2852 1.0521c-.14419-.1382-.32056-.2403-.51521-.3023zM-175.21275 1104.8221h1.23765c-.17389.6101-.55934 1.1302-1.07435 1.4738l-.61754-.6677c.23798-.2022.40557-.4835.45424-.8061zM-177.8405 1105.9471h.65991v.7927h-.65991c-.22077 0-.39842-.1756-.39842-.3963 0-.1379.0689-.2583.17466-.3292a.13230691.13230206 0 0 0 .00053 0 .13230691.13230206 0 0 0 .0615-.033c.0495-.022.10398-.035.16175-.035zM-179.02596 1106.0918l.5271.2098c-.00079.014-.004.027-.004.042 0 .1488.0519.2854.13591.3964h-.75086l-.46302-.3711zM-178.67085 1101.9785c.14481 0 .26529.1205.26529.2653 0 .1448-.12048.2639-.26529.2639-.1448 0-.26388-.1191-.26388-.2639 0-.1448.11908-.2653.26388-.2653z" color="#000" font-family="sans-serif" font-weight="400" overflow="visible" style="line-height:normal;font-variant-ligatures:normal;font-variant-position:normal;font-variant-caps:normal;font-variant-numeric:normal;font-variant-alternates:normal;font-feature-settings:normal;text-indent:0;text-align:start;text-decoration-line:none;text-decoration-style:solid;text-decoration-color:#000;text-transform:none;text-orientation:mixed;shape-padding:0;isolation:auto;mix-blend-mode:normal"></path>
    <path fill="#2d2828" d="m -180.28798,1099.7304 c -0.6551,0 -1.18947,0.5336 -1.18947,1.1894 0,0.6558 0.53437,1.1914 1.18947,1.1914 h 0.19727 a 0.13281486,0.13281 0 1 0 0,-0.2656 h -0.19727 c -0.51186,0 -0.92579,-0.4127 -0.92579,-0.9258 0,-0.5131 0.41393,-0.9258 0.92579,-0.9258 h 0.85939 a 0.13230691,0.13230206 0 1 0 0,-0.2636 z" color="#000" font-family="sans-serif" font-weight="400" overflow="visible" style="line-height:normal;font-variant-ligatures:normal;font-variant-position:normal;font-variant-caps:normal;font-variant-numeric:normal;font-variant-alternates:normal;font-feature-settings:normal;text-indent:0;text-align:start;text-decoration-line:none;text-decoration-style:solid;text-decoration-color:#000;text-transform:none;text-orientation:mixed;shape-padding:0;isolation:auto;mix-blend-mode:normal"></path>
    <path fill="#2d2828" d="M-180.08876 1100.2597c-.47901 0-.85743.422-.85743.9257 0 .5038.37842.9258.85743.9258h.19728a.13281486.13281 0 1 0 0-.2656h-.19728c-.32264 0-.59376-.2872-.59376-.6602 0-.373.27112-.6621.59376-.6621h.66017a.13230691.13230206 0 1 0 0-.2636zM-177.57701 1103.3006c-.28999 0-.52735.239-.52735.5293 0 .2903.23736.5293.52735.5293a.13230691.13230206 0 1 0 0-.2637c-.14632 0-.26171-.1176-.26171-.2656 0-.148.11539-.2637.26171-.2637a.13281702.13281216 0 1 0 0-.2656zM-173.87186 1104.8221a.13230691.13230206 0 0 0-.13087.1347v.066c0 .2895.23629.5274.5254.5274h.0684a.13285486.13285 0 1 0 0-.2657h-.0684c-.14545 0-.26173-.1145-.26173-.2617v-.066a.13230691.13230206 0 0 0-.1328-.1347z" color="#000" font-family="sans-serif" font-weight="400" overflow="visible" style="line-height:normal;font-variant-ligatures:normal;font-variant-position:normal;font-variant-caps:normal;font-variant-numeric:normal;font-variant-alternates:normal;font-feature-settings:normal;text-indent:0;text-align:start;text-decoration-line:none;text-decoration-style:solid;text-decoration-color:#000;text-transform:none;text-orientation:mixed;shape-padding:0;isolation:auto;mix-blend-mode:normal"></path>
    <path fill="#f39515" d="M-174.21252 1099.7967a.13230694.13230209 0 0 0 .0137.2636h.12891a.13230694.13230209 0 1 0 0-.2636h-.12891a.13230694.13230209 0 0 0-.0137 0zM-174.87464 1099.7967a.13230694.13230209 0 0 0 .0137.2636h.12892a.13230694.13230209 0 1 0 0-.2636h-.12892a.13230694.13230209 0 0 0-.0137 0z" color="#000" font-family="sans-serif" font-weight="400" overflow="visible" style="line-height:normal;font-variant-ligatures:normal;font-variant-position:normal;font-variant-caps:normal;font-variant-numeric:normal;font-variant-alternates:normal;font-feature-settings:normal;text-indent:0;text-align:start;text-decoration-line:none;text-decoration-style:solid;text-decoration-color:#000;text-transform:none;text-orientation:mixed;shape-padding:0;isolation:auto;mix-blend-mode:normal"></path>
    <path fill="#f39515" d="M-175.25967 1099.2004a.13229369.13228884 0 0 1-.13229.1323.13229369.13228884 0 0 1-.1323-.1323.13229369.13228884 0 0 1 .1323-.1323.13229369.13228884 0 0 1 .13229.1323zM-174.20132 1101.0525a.13229369.13228884 0 0 1-.13229.1323.13229369.13228884 0 0 1-.13229-.1323.13229369.13228884 0 0 1 .13229-.1323.13229369.13228884 0 0 1 .13229.1323z"></path>
    <path fill="#f39515" d="M-174.33452 1100.1814a.13230694.13230209 0 0 0-.26369.014v.1289a.13230694.13230209 0 1 0 .26369 0v-.1289a.13230694.13230209 0 0 0 0-.014zM-174.33452 1099.5193a.13230694.13230209 0 0 0-.26369.014v.1289a.13230694.13230209 0 1 0 .26369 0v-.1289a.13230694.13230209 0 0 0 0-.014z" color="#000" font-family="sans-serif" font-weight="400" overflow="visible" style="line-height:normal;font-variant-ligatures:normal;font-variant-position:normal;font-variant-caps:normal;font-variant-numeric:normal;font-variant-alternates:normal;font-feature-settings:normal;text-indent:0;text-align:start;text-decoration-line:none;text-decoration-style:solid;text-decoration-color:#000;text-transform:none;text-orientation:mixed;shape-padding:0;isolation:auto;mix-blend-mode:normal"></path>
    <path fill="#f39515" d="m -180.21597,1105.0258 a 0.13229369,0.13228884 0 0 0 0.13229,0.1323 0.13229369,0.13228884 0 0 0 0.13229,-0.1323 0.13229369,0.13228884 0 0 0 -0.13229,-0.1322 0.13229369,0.13228884 0 0 0 -0.13229,0.1322 z"></path>
    <path fill="#f39515" d="M-180.55447 1103.6708a.13230691.13230206 0 0 1-.004.1864l-.0939.094a.13230691.13230206 0 1 1-.18645-.1864l.0939-.094a.13230691.13230206 0 0 1 .1906 0zM-181.01299 1104.1486a.13230691.13230206 0 0 1-.0138.1768l-.0925.092a.13230691.13230206 0 1 1-.18645-.1864l.0925-.093a.13230691.13230206 0 0 1 .20026.01zM-180.54894 1104.2425a.13230691.13230206 0 0 1-.19613.1768l-.0939-.094a.13230691.13230206 0 1 1 .18646-.1864l.0939.094a.13230691.13230206 0 0 1 .01.01zM-181.01714 1103.7744a.13230691.13230206 0 0 1-.19611.1767l-.0925-.092a.13230691.13230206 0 1 1 .18646-.1864l.0925.092a.13230691.13230206 0 0 1 .01.01z" color="#000" font-family="sans-serif" font-weight="400" overflow="visible" style="line-height:normal;font-variant-ligatures:normal;font-variant-position:normal;font-variant-caps:normal;font-variant-numeric:normal;font-variant-alternates:normal;font-feature-settings:normal;text-indent:0;text-align:start;text-decoration-line:none;text-decoration-style:solid;text-decoration-color:#000;text-transform:none;text-orientation:mixed;shape-padding:0;isolation:auto;mix-blend-mode:normal"></path>
    <path fill="#f39515" d="m -179.5545,1104.2321 a 0.13229369,0.13228884 0 0 0 0.13229,0.1323 0.13229369,0.13228884 0 0 0 0.13229,-0.1323 0.13229369,0.13228884 0 0 0 -0.13229,-0.1323 0.13229369,0.13228884 0 0 0 -0.13229,0.1323 z"></path>
  </g>
</svg>
