<svg xmlns="http://www.w3.org/2000/svg" id="roast-chicken" enable-background="new 0 0 64 64" viewBox="0 0 64 64">
  <path fill="#935e47" d="M23.98,41.02C22.52,39.78,20.38,39,18,39c-1.8,0-3.45,0.44-4.79,1.21c-1.27,0.7-2.25,1.69-2.77,2.83
			c-0.15-0.1-0.29-0.2-0.44-0.3c0.1-0.3,0.1-0.6,0-0.89c1.1,0,2-1.35,2-3c0-1.03-0.77-2.32-1.35-3.15
			c3.9-6.01,12.79-14.77,31.04-13.23c3.34,0.28,6.49,1.79,8.67,4.25c-4.51,1.95-7.58,3.07-9.38,3.67c-1.66,0.56-3.22,1.39-4.52,2.55
			C28.76,39.8,38,44,38,44c0.08,0.08,0.21,0.14,0.38,0.18l-0.76,0.86c-0.24-0.22-0.51-0.39-0.81-0.52c-1.53-0.64-3.29,0.07-3.93,1.6
			c-0.17,0.4-0.25,0.81-0.24,1.21c-0.89-0.31-2.74-0.86-3.9-0.49c-0.68,0.22-1.26,0.58-1.66,1c-0.09-0.59-0.34-1.2-0.77-1.78
			c-0.1-0.14-0.23-0.27-0.37-0.39C25.98,45.45,26,45.23,26,45C26,43.47,25.23,42.07,23.98,41.02z"></path>
  <path fill="#fbde08" d="M56.83,42.84c0.29,1.86-1.05,3.92-3.29,4.85c-0.89,0.37-1.8,0.51-2.64,0.46c-1.6-0.1-2.97-0.9-3.52-2.23
			c-0.03-0.09-0.07-0.18-0.1-0.28l3.45-0.66l-4.08-0.63l5.92-4.51c0.73-0.02,1.42,0.09,2.03,0.34c0.92,0.36,1.65,1.01,2.02,1.9
			C56.72,42.33,56.79,42.58,56.83,42.84z"></path>
  <path fill="#ffc008" d="M53.54,47.69c-0.89,0.37-1.8,0.51-2.64,0.46c-1.6-0.1-2.96-0.9-3.51-2.22C47.75,45.98,48.12,46,48.5,46
			c3.59,0,6.5-2.01,6.5-4.5c0-0.44-0.09-0.86-0.26-1.26c0.85,0.37,1.53,1,1.88,1.84c0.1,0.25,0.17,0.5,0.21,0.76
			C57.12,44.7,55.78,46.76,53.54,47.69z"></path>
  <path fill="#f2f2f2" d="M59,23c0,0,4,0,2,3s-4,1-4,1l-2,2l-3-3l3-2c0,0-1-2,2-3S59,23,59,23z"></path>
  <path fill="#ccc" d="M59,23c0,0,0.009-0.029,0.021-0.069c-1.378,1.826-3.255,3.374-5.613,4.477L55,29l2-2c0,0,2,2,4-1
			S59,23,59,23z"></path>
  <path fill="#e5e5e5" d="M18,54c1.32,0,2.57-0.38,3.66-1.05C24.63,53.62,28.19,54,32,54c9.84,0,17.93-2.56,18.9-5.84v-0.01
			c0.84,0.05,1.75-0.09,2.64-0.46c2.24-0.93,3.58-2.99,3.29-4.85l0.04-0.01C60.72,44.41,63,46.37,63,48.5c0,5.25-13.88,9.5-31,9.5
			S1,53.75,1,48.5c0-1.49,1.11-2.89,3.1-4.14c0.95,0.3,2.63,0.71,3.71,0.35c1.13-0.39,1.96-1.17,2.19-1.97
			c0.15,0.1,0.29,0.2,0.44,0.3C10.15,43.66,10,44.32,10,45c0,0.1,0,0.21,0.01,0.31C10.16,49.88,13.68,54,18,54z"></path>
  <path fill="#e5e5e5" d="M10,43.85c-0.21,0-0.41-0.05-0.6-0.14c0.3-0.3,0.5-0.63,0.6-0.97c0.15,0.1,0.29,0.2,0.44,0.3
			c-0.18,0.38-0.3,0.77-0.37,1.18C10.07,44.1,10.04,43.98,10,43.85z"></path>
  <path fill="#b7a9a9" d="M63,48.5c0,5.25-13.88,9.5-31,9.5c-13.9,0-25.66-2.8-29.6-6.67C7.79,54.13,17.73,56,29.1,56
			c17.12,0,31-4.25,31-9.5c0-0.98-0.49-1.94-1.4-2.83C61.43,45.08,63,46.73,63,48.5z"></path>
  <path fill="#f2f2f2" d="M24.72,49.76c0.65,0.26,1.3,0.25,1.77-0.1c0.33,1.05,1.89,1.5,3.46,0.99c1.1-0.35,2.22-1.72,2.81-2.53
			c0.24,0.84,0.84,1.56,1.71,1.93c1.53,0.65,3.29-0.07,3.93-1.59c0.12-0.28,0.19-0.56,0.22-0.85l7.4,0.81l-2.38-2.09l3.64-0.69
			c0.03,0.1,0.07,0.19,0.1,0.28c0.55,1.33,1.92,2.13,3.52,2.23v0.01C49.93,51.44,41.84,54,32,54c-3.81,0-7.37-0.38-10.34-1.05
			C22.91,52.2,23.97,51.08,24.72,49.76z"></path>
  <path fill="#c1aeae" d="M50.9,48.15v0.01c-0.18,0.61-0.61,1.2-1.25,1.75c-1.04-0.34-1.87-1.02-2.27-1.99
			c-0.03-0.09-0.07-0.18-0.1-0.28l1.32-0.25C49.24,47.84,50.04,48.1,50.9,48.15z"></path>
  <path fill="#f2f2f2" d="M32.64,49.33c-0.19-0.07-0.42-0.14-0.68-0.22c0.32-0.35,0.59-0.71,0.8-0.99c0.02,0.06,0.03,0.11,0.06,0.17
			C32.69,48.64,32.63,48.99,32.64,49.33z"></path>
  <path fill="#d00000" d="M37.62,45.04c0.73,0.63,1.11,1.6,1,2.57c-0.03,0.29-0.1,0.57-0.22,0.85c-0.64,1.52-2.4,2.24-3.93,1.59
			c-0.87-0.37-1.47-1.09-1.71-1.93c0.25-0.35,0.4-0.59,0.4-0.59s-0.2-0.08-0.52-0.2c-0.01-0.4,0.07-0.81,0.24-1.21
			c0.64-1.53,2.4-2.24,3.93-1.6C37.11,44.65,37.38,44.82,37.62,45.04z"></path>
  <path fill="#9d0208" d="M38.62,47.61c-0.03,0.29-0.1,0.57-0.22,0.85c-0.64,1.52-2.4,2.24-3.93,1.59c-0.6-0.26-1.08-0.68-1.38-1.2
			C33.37,48.95,33.68,49,34,49c1.66,0,3-1.34,3-3c0-0.58-0.16-1.12-0.44-1.57c0.09,0.02,0.17,0.06,0.25,0.09
			c0.3,0.13,0.57,0.3,0.81,0.52C38.35,45.67,38.73,46.64,38.62,47.61z"></path>
  <path fill="#688251" d="M48.45,40.86l4.62-1.4l-0.5,0.38l-5.92,4.51l4.08,0.63l-3.45,0.66l-3.64,0.69l2.38,2.09l-7.4-0.81
			c0.11-0.97-0.27-1.94-1-2.57l0.76-0.86l3.53-4.01l-0.25,3.15l5.49-5.28l-1.56,3.69L48.45,40.86z"></path>
  <path fill="#4c6834" d="M53.07,39.46l-4.62,1.4l-0.628,0.191c-2.271,3.001-5.402,5.311-9.212,5.828
			c0.033,0.24,0.037,0.485,0.009,0.731l7.4,0.81l-2.38-2.09l3.64-0.69l3.45-0.66l-4.08-0.63l5.92-4.51L53.07,39.46z"></path>
  <path fill="#506d3c" d="M25.94,45.67c0.14,0.12,0.27,0.25,0.37,0.39c0.43,0.58,0.68,1.19,0.77,1.78v0.01
			c-0.54,0.55-0.78,1.21-0.59,1.81c-0.47,0.35-1.12,0.36-1.77,0.1c-0.32-0.14-0.65-0.34-0.95-0.6c-0.24-0.2-0.47-0.44-0.68-0.72
			c-0.63-0.85-0.77-2.43-0.78-3.44c-0.02-0.57,0.01-0.96,0.01-0.96s1.41,0.32,2.62,0.96c0,0,0,0,0.01,0
			C25.31,45.2,25.66,45.42,25.94,45.67z"></path>
  <path fill="#3c5428" d="M26.49,49.66c-0.47,0.35-1.12,0.36-1.77,0.1c-0.32-0.14-0.65-0.34-0.95-0.6c-0.24-0.2-0.47-0.44-0.68-0.72
			c-0.63-0.85-0.77-2.43-0.78-3.44c-0.02-0.57,0.01-0.96,0.01-0.96s0.38,0.09,0.92,0.26c0.03,1,0.2,2.37,0.77,3.14
			c0.21,0.28,0.44,0.52,0.68,0.72c0.3,0.26,0.63,0.46,0.95,0.6c0.28,0.11,0.56,0.17,0.82,0.18C26.41,49.18,26.42,49.43,26.49,49.66z
			"></path>
  <path fill="#c1aeae" d="M26.8,50.19c-0.34,0.47-0.46,0.99-0.31,1.47c-0.47,0.35-1.12,0.36-1.77,0.1c-0.32-0.14-0.65-0.34-0.95-0.6
			c-0.01-0.01-0.01-0.01-0.02-0.01v-0.01c0.37-0.43,0.69-0.89,0.97-1.38c0.65,0.26,1.3,0.25,1.77-0.1c0.06,0.2,0.17,0.38,0.31,0.52
			C26.8,50.18,26.8,50.18,26.8,50.19z"></path>
  <path fill="#688251" d="M33.16,47.53c0,0-0.15,0.24-0.4,0.59c-0.59,0.81-1.71,2.18-2.81,2.53c-1.57,0.51-3.13,0.06-3.46-0.99
			c-0.19-0.6,0.05-1.26,0.59-1.81v-0.01c0.4-0.42,0.98-0.78,1.66-1c1.16-0.37,3.01,0.18,3.9,0.49
			C32.96,47.45,33.16,47.53,33.16,47.53z"></path>
  <path fill="#4c6834" d="M33.16,47.53c0,0-0.15,0.24-0.4,0.59c-0.59,0.81-1.71,2.18-2.81,2.53c-1.57,0.51-3.13,0.06-3.46-0.99
			c-0.15-0.47-0.04-0.97,0.28-1.43c0.62,0.63,1.86,0.82,3.1,0.42c0.72-0.23,1.45-0.9,2.03-1.56c0.28,0.09,0.54,0.17,0.74,0.24
			C32.96,47.45,33.16,47.53,33.16,47.53z"></path>
  <path fill="#c1aeae" d="M46.02 50.42l-7.4-.81c-.03.29-.1.57-.22.85-.64 1.52-2.4 2.24-3.93 1.59-.87-.37-1.47-1.09-1.71-1.93-.59.81-1.71 2.18-2.81 2.53-1.57.51-3.13.06-3.46-.99-.15-.48-.03-1 .31-1.47.61.66 1.88.87 3.15.46.71-.23 1.44-.88 2.01-1.54.26.08.49.15.68.22-.01-.34.05-.69.18-1.04.26.77.84 1.42 1.65 1.76 1.53.65 3.29-.07 3.93-1.59.12-.28.19-.56.22-.85l5.59.61-.57.11L46.02 50.42zM48.6 47.39l-1.32.25-1.77.33-1.87-1.64 3.64-.69c.03.1.07.19.1.28C47.63 46.53 48.06 47.03 48.6 47.39z"></path>
  <path fill="#688251" d="M12,38.85c0,1.65-0.9,3-2,3c-0.62,0-1.18-0.44-1.55-1.11C8.16,40.22,8,39.57,8,38.85c0-1.66,2-4,2-4
			s0.29,0.34,0.65,0.85C11.23,36.53,12,37.82,12,38.85z"></path>
  <path fill="#4c6834" d="M10.65,35.7C10.29,35.19,10,34.85,10,34.85s-0.104,0.125-0.251,0.313c0.627,2.038,0.668,4.237-0.215,6.6
			C9.684,41.818,9.84,41.85,10,41.85c1.1,0,2-1.35,2-3C12,37.82,11.23,36.53,10.65,35.7z"></path>
  <path fill="#506d3c" d="M10,41.85c0.1,0.29,0.1,0.59,0,0.89c-0.23,0.8-1.06,1.58-2.19,1.97c-1.08,0.36-2.76-0.05-3.71-0.35
			c-0.44-0.14-0.72-0.25-0.72-0.25s1.57-2.65,3.13-3.19c0.68-0.23,1.36-0.28,1.94-0.18C8.82,41.41,9.38,41.85,10,41.85z"></path>
  <path fill="#3c5428" d="M4.335,42.749C3.762,43.466,3.38,44.11,3.38,44.11s0.28,0.11,0.72,0.25c0.95,0.3,2.63,0.71,3.71,0.35
			c1.13-0.39,1.96-1.17,2.19-1.97c0.078-0.233,0.076-0.464,0.034-0.692C8.366,42.794,6.313,42.915,4.335,42.749z"></path>
  <path fill="#b7a9a9" d="M53.54,49.69c-0.89,0.37-1.8,0.51-2.64,0.46c-0.44-0.03-0.86-0.11-1.25-0.24c0.64-0.55,1.07-1.14,1.25-1.75
			v-0.01c0.84,0.05,1.75-0.09,2.64-0.46c1.63-0.68,2.79-1.96,3.18-3.32c0.05,0.15,0.09,0.31,0.11,0.47
			C57.12,46.7,55.78,48.76,53.54,49.69z"></path>
  <path fill="#c1aeae" d="M10.07,44.22c-0.03,0.15-0.05,0.3-0.05,0.45c0,0.02-0.01,0.05-0.02,0.07c-0.23,0.8-1.06,1.58-2.19,1.97
			c-1.08,0.36-2.76-0.05-3.71-0.35c-0.44-0.14-0.72-0.25-0.72-0.25s0.48-0.81,1.17-1.62c0.97,0.27,2.33,0.53,3.26,0.22
			c0.65-0.23,1.21-0.58,1.59-1c0.19,0.09,0.39,0.14,0.6,0.14C10.04,43.98,10.07,44.1,10.07,44.22z"></path>
  <path fill="#ffc008" d="M23.98 41.02L18 45v-6C20.38 39 22.52 39.78 23.98 41.02zM23.09 48.44c.21.28.44.52.68.72-.3.23-.63.45-.98.63L18 45h4.3.01C22.32 46.01 22.46 47.59 23.09 48.44zM18 45v6c-2.38 0-4.52-.78-5.98-2.02L18 45zM10.44 43.04c.52-1.14 1.5-2.13 2.77-2.83L18 45h-8C10 44.32 10.15 43.66 10.44 43.04z"></path>
  <path fill="#fbde08" d="M18 39v6l-4.79-4.79C14.55 39.44 16.2 39 18 39zM18 45l5.98-3.98C25.23 42.07 26 43.47 26 45h-1.05c-.01 0-.01 0-.01 0-1.21-.64-2.62-.96-2.62-.96s-.03.39-.01.96H22.3 18zM22.79 49.79C21.45 50.55 19.8 51 18 51v-6L22.79 49.79zM18 45l-5.98 3.98c-1.17-.98-1.91-2.26-2.01-3.67C10 45.21 10 45.1 10 45H18z"></path>
  <path fill="#ff9700" d="M23.09 48.44c-.577-.778-.741-2.164-.773-3.168-.789.616-1.623 1.139-2.496 1.549l2.969 2.969c.35-.18.68-.4.98-.63C23.53 48.96 23.3 48.72 23.09 48.44zM13.872 47.747L12.02 48.98C13.48 50.22 15.62 51 18 51v-3.503C16.674 47.86 15.287 47.958 13.872 47.747z"></path>
  <path fill="#ffc008" d="M23.396 44.354c.467.157 1.021.37 1.544.646 0 0 0 0 .01 0H26c0-.946-.296-1.842-.816-2.637C24.63 43.08 24.035 43.751 23.396 44.354zM18 51c1.8 0 3.45-.45 4.79-1.21l-2.969-2.969C19.23 47.1 18.622 47.327 18 47.497V51zM12.02 48.98l1.852-1.233c-1.188-.177-2.395-.572-3.604-1.224C10.593 47.451 11.197 48.291 12.02 48.98z"></path>
  <path fill="#f9af0b" d="M24.72,49.76c-0.75,1.32-1.81,2.44-3.06,3.19C20.57,53.62,19.32,54,18,54c-4.32,0-7.84-4.12-7.99-8.69
			c0.1,1.41,0.84,2.69,2.01,3.67C13.48,50.22,15.62,51,18,51c1.8,0,3.45-0.45,4.79-1.21c0.35-0.18,0.68-0.4,0.98-0.63
			C24.07,49.42,24.4,49.62,24.72,49.76z"></path>
  <path fill="#935e47" d="M53.46,32.08c0,0,1.74,3.62,1.14,8.1c-0.61-0.25-1.3-0.36-2.03-0.34l0.5-0.38l-4.62,1.4
			C49.12,40.3,49.66,39.68,50,39C51,36.99,52.4,34.2,53.46,32.08z"></path>
  <path fill="#9e7059" d="M52,26l3,3c0,0-0.65,1.31-1.54,3.08C52.4,34.2,51,36.99,50,39c-0.34,0.68-0.88,1.3-1.55,1.86l-2.86,0.87
			l1.56-3.69l-5.49,5.28l0.25-3.15l-3.53,4.01c-0.17-0.04-0.3-0.1-0.38-0.18c0,0-9.24-4.2-1.54-11.06c1.3-1.16,2.86-1.99,4.52-2.55
			c1.8-0.6,4.87-1.72,9.38-3.67C50.89,26.49,51.43,26.25,52,26z"></path>
  <path fill="#7f4632" d="M54.26,34.48c-0.85,1.69-1.87,3.73-2.73,5.45l-3.08,0.93C49.12,40.3,49.66,39.68,50,39
			c1-2.01,2.4-4.8,3.46-6.92C53.46,32.08,53.9,33,54.26,34.48z"></path>
  <path fill="#995b3f" d="M34.451,41.186C35.81,43.001,38,44,38,44c0.08,0.08,0.21,0.14,0.38,0.18l3.53-4.01l-0.25,3.15l5.49-5.28
			l-1.56,3.69l2.86-0.87C49.12,40.3,49.66,39.68,50,39c1-2.01,2.4-4.8,3.46-6.92C54.35,30.31,55,29,55,29l-2.46-2.46
			C49.253,34.36,43.223,40.886,34.451,41.186z"></path>
  <path fill="#7f4632" d="M10 41.85c.1.29.1.59 0 .89.15.1.29.2.44.3.462-1.014 1.303-1.896 2.373-2.574-.336-.118-.67-.241-1.002-.366C11.493 41.128 10.802 41.85 10 41.85zM25.567 43.072C25.843 43.677 26 44.325 26 45c0 .23-.02.45-.06.67.14.12.27.25.37.39.43.58.68 1.19.77 1.78.4-.42.98-.78 1.66-1 1.16-.37 3.01.18 3.9.49-.01-.4.07-.81.24-1.21.64-1.53 2.4-2.24 3.93-1.6.3.13.57.3.81.52l.76-.86c-.17-.04-.3-.1-.38-.18 0 0-1.318-.6-2.543-1.715C32.216 43.016 28.885 43.25 25.567 43.072z"></path>
  <path fill="#f7edc6" d="M52.293,41.946c-0.643,0-1.941,1.16-1.296,1.16C51.641,43.106,52.938,41.946,52.293,41.946z"></path>
  <path fill="#f4e38c" d="M12.886,41.929c-0.277,0-0.463,0.176-0.685,0.434c-0.293,0.342-0.548,0.789-0.181,0.789
			c0.268,0,0.369-0.3,0.589-0.547C12.917,42.258,13.262,41.929,12.886,41.929z"></path>
  <path fill="#f75b3c" d="M35.38,45.478c-0.227,0-0.506,0.129-0.746,0.297c-0.44,0.308-0.824,0.941-0.406,0.941
			c0.205,0,0.462-0.403,0.685-0.548C35.389,45.86,35.819,45.478,35.38,45.478z"></path>
  <circle cx="24" cy="34" r="1" fill="#7f4632"></circle>
  <circle cx="24" cy="29" r="1" fill="#7f4632"></circle>
  <circle cx="26.5" cy="31.5" r=".5" fill="#7f4632"></circle>
  <circle cx="20.5" cy="31.5" r=".5" fill="#7f4632"></circle>
  <circle cx="18" cy="34" r="1" fill="#7f4632"></circle>
  <g>
    <path fill="#472b3c" d="M57.676 42.088c-.041-.134-.083-.267-.138-.398-.221-.527-.54-.999-.951-1.403-.394-.388-1.026-.382-1.414.011-.388.394-.382 1.027.012 1.415.22.216.391.468.508.748.636 1.527-.502 3.459-2.538 4.308-1.025.427-2.11.512-3.054.241-.481-.138-.881-.368-1.201-.659l2.016-.383c.479-.091.821-.512.813-.999s-.365-.896-.846-.972l-1.758-.275 4.548-3.467c.385-.293.504-.82.284-1.251-.221-.431-.721-.641-1.181-.501l-5.432 1.647.727-1.718c.186-.438.037-.944-.354-1.213-.389-.269-.916-.227-1.26.103l-3.594 3.455.042-.53c.033-.429-.211-.832-.607-1-.397-.168-.856-.064-1.141.26l-3.027 3.438c-.85-.454-3.367-1.972-3.7-4.194-.233-1.562.673-3.267 2.694-5.068 1.132-1.008 2.534-1.795 4.169-2.34 2.01-.67 5.436-1.928 10.483-4.151l2.006 2.005-3.678 7.355c-.247.494-.047 1.095.447 1.342.494.247 1.094.047 1.342-.447l1.383-2.766c.224.911.42 2.047.443 3.336.01.546.455.982 1 .982.006 0 .012 0 .018 0 .553-.01.992-.465.982-1.018-.049-2.765-.792-4.954-1.159-5.87l1.26-2.52 1.301-1.3c.445.227 1.047.416 1.758.347 1.109-.11 2.103-.811 2.951-2.084.774-1.162.936-2.187.477-3.044-.455-.849-1.38-1.222-2.148-1.385.018-.583-.101-1.258-.602-1.758-.634-.634-1.603-.74-2.875-.316-1.354.451-2.238 1.161-2.632 2.11-.214.517-.237 1.005-.192 1.397l-2.342 1.561c-.323.143-.623.273-.933.409-2.291-2.3-5.454-3.775-8.812-4.058-17.881-1.506-27.041 6.766-31.211 12.582-.406-.27-.996-.235-1.322.145C9.01 34.465 7 36.877 7 38.846c0 .317.033.621.083.916-.297.048-.595.113-.891.214-1.863.636-3.496 3.317-3.677 3.621-.132.223-.155.485-.097.735C.821 45.611 0 47.007 0 48.5 0 55.32 16.487 59 32 59s32-3.68 32-10.5C64 46.803 62.878 44.333 57.676 42.088zM49.335 48.847C47.31 50.99 40.821 53 32 53c-2.802 0-5.528-.218-8.018-.625.432-.439.824-.933 1.183-1.468.144.021.287.031.429.031.176 0 .347-.022.515-.055.351.366.81.656 1.372.817.37.106.77.159 1.181.159.522 0 1.065-.085 1.597-.255.87-.277 1.691-.996 2.348-1.716.397.463.894.839 1.474 1.084.508.215 1.034.316 1.554.316 1.56 0 3.045-.917 3.689-2.441.02-.047.027-.098.045-.145l6.541.714c.036.004.072.006.108.006.393 0 .754-.231.915-.597.176-.399.073-.866-.254-1.154l-.839-.739.879-.167C47.27 47.733 48.17 48.46 49.335 48.847zM29.042 47.794c.173-.056.384-.08.618-.08.564 0 1.266.141 1.906.323-.589.735-1.324 1.473-1.916 1.662-.569.182-1.158.211-1.62.079-.313-.09-.533-.248-.59-.423C27.317 48.967 27.879 48.166 29.042 47.794zM12.128 47.713c-.467-.514-.81-1.092-.987-1.713h3.556L12.128 47.713zM11.141 44c.279-.978.959-1.853 1.911-2.534L15.586 44H11.141zM17 46.868v3.074c-1.186-.122-2.274-.456-3.19-.948L17 46.868zM19 47.414l.293.293C19.488 47.902 19.744 48 20 48s.512-.098.707-.293c.391-.391.391-1.023 0-1.414l-1.137-1.138 1.75-1.167c-.026.412-.177 3.378.915 4.962-.948.52-2.06.849-3.235.974V47.414zM25.505 46.653c.225.303.37.631.47.956-.287.412-.458.859-.516 1.314-.434-.055-1.048-.387-1.561-1.079-.37-.5-.536-1.528-.585-2.469C24.199 45.697 25.135 46.154 25.505 46.653zM22.666 43.091l1.206-.804c.421.463.734.98.923 1.531C23.877 43.412 23.007 43.175 22.666 43.091zM19 43.132v-3.074c1.186.122 2.274.456 3.19.948L19 43.132zM17 42.586l-2.071-2.072c.642-.225 1.338-.381 2.071-.457V42.586zM18 52c1.576 0 3.085-.315 4.418-.898C21.17 52.308 19.622 53 18 53c-1.648 0-3.205-.732-4.431-1.914C14.879 51.665 16.389 52 18 52zM34.109 47.226c-.066-.206-.211-.365-.383-.489.022-.076.039-.154.07-.229.208-.492.596-.874 1.091-1.074.494-.201 1.037-.197 1.53.011.492.208.874.596 1.075 1.091.2.495.196 1.039-.012 1.53-.429 1.015-1.603 1.492-2.622 1.063-.421-.178-.761-.49-.975-.883.055-.085.101-.156.121-.189C34.16 47.809 34.198 47.505 34.109 47.226zM41.232 44.224c.376.179.822.105 1.121-.183l2.25-2.163c.029.189.112.369.245.517.259.287.66.4 1.033.288l2.17-.658-2.003 1.527c-.318.243-.461.653-.363 1.041.028.111.075.214.136.307l-2.363.449c-.375.071-.677.35-.778.718-.101.369.018.762.304 1.015l.003.002-3.4-.371c-.046-.314-.118-.626-.24-.928-.107-.264-.243-.51-.399-.74l1.729-1.964-.013.161C40.631 43.656 40.857 44.047 41.232 44.224zM55.555 24.832c.404-.27.545-.815.35-1.259-.006-.014-.144-.333.003-.664.164-.371.665-.712 1.409-.96.559-.186.795-.156.816-.176.06.148.021.596-.081.911-.102.304-.05.638.137.898.187.261.488.416.809.418.661.004 1.429.229 1.548.455.035.066.035.372-.377.991-.341.511-.872 1.134-1.471 1.202-.544.057-.99-.354-.99-.354-.391-.391-1.023-.391-1.414 0L55 27.586l-1.43-1.43L55.555 24.832zM41.604 23.463c2.612.22 5.083 1.274 6.982 2.926-3.679 1.558-6.291 2.511-7.926 3.056C38.768 30.077 37.13 31 35.795 32.19c-2.562 2.282-3.686 4.592-3.341 6.867.282 1.859 1.506 3.291 2.689 4.276-.341.043-.68.115-1.007.248-.99.401-1.765 1.165-2.181 2.148-.044.103-.062.211-.097.316-1.055-.277-2.395-.486-3.425-.156-.302.096-.582.22-.847.357-.136-.268-.289-.533-.475-.784-.041-.056-.09-.108-.135-.161C26.982 45.201 27 45.1 27 45c0-3.86-4.037-7-9-7-1.86 0-3.59.441-5.026 1.196C12.982 39.079 13 38.966 13 38.846c0-1.058-.579-2.233-1.151-3.146C15.579 30.25 24.178 21.994 41.604 23.463zM9.998 36.518C10.504 37.282 11 38.217 11 38.846c0 1.221-.592 2-1 2s-1-.779-1-2C9 38.226 9.478 37.302 9.998 36.518zM6.838 41.869c.357-.122.714-.16 1.053-.157.305.399.68.698 1.096.892-.186.397-.69.88-1.504 1.158-.589.2-1.617.046-2.529-.193C5.529 42.821 6.249 42.069 6.838 41.869zM32 57c-17.68 0-30-4.479-30-8.5 0-1.216 1.153-2.294 2.258-3.051.723.201 1.651.399 2.54.399.469 0 .926-.055 1.332-.194.317-.108.607-.247.882-.4C9.139 50.562 13.198 55 18 55c1.343 0 2.637-.361 3.818-.999C24.883 54.65 28.386 55 32 55c8.406 0 17.496-2.008 19.561-5.852.791-.039 1.592-.212 2.363-.534 2.043-.851 3.44-2.524 3.826-4.3C60.468 45.63 62 47.123 62 48.5 62 52.521 49.68 57 32 57zM37.293 18.707C37.488 18.902 37.744 19 38 19s.512-.098.707-.293c1.238-1.238 3.066-4.349 1.125-7.262-1.59-2.385-.069-4.784.002-4.894.304-.459.179-1.078-.279-1.383-.461-.308-1.081-.183-1.387.277-.097.145-2.343 3.595 0 7.109 1.514 2.271-.779 4.641-.875 4.738C36.902 17.684 36.902 18.316 37.293 18.707zM30.293 17.707C30.488 17.902 30.744 18 31 18s.512-.098.707-.293c1.238-1.238 3.066-4.349 1.125-7.262-1.59-2.385-.069-4.784.002-4.894.304-.459.179-1.078-.279-1.383-.462-.308-1.082-.182-1.387.277-.097.145-2.343 3.595 0 7.109 1.514 2.271-.779 4.641-.875 4.738C29.902 16.684 29.902 17.316 30.293 17.707zM23.293 18.707C23.488 18.902 23.744 19 24 19s.512-.098.707-.293c1.238-1.238 3.066-4.349 1.125-7.262-1.59-2.385-.069-4.784.002-4.894.304-.459.179-1.078-.279-1.383-.462-.308-1.081-.183-1.387.277-.097.145-2.343 3.595 0 7.109 1.514 2.271-.779 4.641-.875 4.738C22.902 17.684 22.902 18.316 23.293 18.707z"></path>
  </g>
</svg>
